<?xml version="1.0" encoding="utf-8"?>
<!-- Generator: Adobe Illustrator 16.0.0, SVG Export Plug-In . SVG Version: 6.00 Build 0)  -->
<!DOCTYPE svg PUBLIC "-//W3C//DTD SVG 1.1//EN" "http://www.w3.org/Graphics/SVG/1.1/DTD/svg11.dtd">
<svg version="1.1" xmlns="http://www.w3.org/2000/svg" xmlns:xlink="http://www.w3.org/1999/xlink" x="0px" y="0px" width="2048px"
	 height="2048px" viewBox="0 0 2048 2048" enable-background="new 0 0 2048 2048" xml:space="preserve">
<g id="Layer_1">
	<path fill="none" stroke="#FF1D25" stroke-width="6.138" stroke-miterlimit="10" d="M1024,554.653"/>
	<path fill="none" stroke="#FF1D25" stroke-width="6.138" stroke-miterlimit="10" d="M1024,1157.063"/>
</g>
<g id="Layer_3">
</g>
<g id="Layer_2" display="none">
	<g display="inline">
		<path d="M1872,461v1128H176V461H1872 M1874,458H174v1134h1700V458L1874,458z"/>
	</g>
	<path display="inline" fill="none" stroke="#000000" stroke-width="3.0506" stroke-miterlimit="10" d="M2049.016,1025.096
		C2049.016,458.998,1590.101,0.081,1024,0.081C457.898,0.081-1.016,458.998-1.016,1025.096
		c0,566.104,458.914,1025.017,1025.016,1025.017C1590.101,2050.112,2049.016,1591.2,2049.016,1025.096z"/>
	
		<rect x="284.5" y="570.5" display="inline" fill="none" stroke="#000000" stroke-width="5" stroke-miterlimit="10" width="1479" height="909"/>
</g>
<g id="Layer_4">
	<g>
		<g>
			<path d="M1259.174,1156.627c0,0-5.24-3.921-7.168-5.092c-1.943-1.17-4.365-2.244-7.288-3.227
				c-2.908-0.988-6.498-1.48-10.774-1.48c-4.27,0-8.024,0.568-11.262,1.708c-3.252,1.14-5.973,2.695-8.157,4.666
				c-2.188,1.976-3.857,4.256-4.984,6.85c-1.143,2.594-1.711,5.311-1.711,8.167c0,3.734,0.845,6.818,2.541,9.261
				c1.692,2.438,3.919,4.509,6.695,6.216c2.769,1.718,5.923,3.162,9.444,4.322c3.518,1.165,7.129,2.32,10.847,3.471
				c3.723,1.14,7.344,2.391,10.865,3.765c3.515,1.378,6.658,3.101,9.438,5.177c2.769,2.072,5.005,4.626,6.695,7.666
				c1.696,3.034,2.543,6.803,2.543,11.317c0,4.615-0.847,8.962-2.543,13.025c-1.69,4.074-4.143,7.615-7.366,10.625
				c-3.212,3.004-7.151,5.38-11.813,7.113c-4.655,1.742-9.979,2.603-15.959,2.603c-7.774,0-14.459-1.28-20.058-3.846
				c-5.603-2.572-10.511-6.083-14.718-10.542l5.006-4.909c0,0,3.283,2.639,4.396,3.552c1.098,0.902,2.43,1.89,3.986,2.953
				c1.546,1.064,3.356,2.048,5.404,2.959c2.057,0.901,4.413,1.672,7.076,2.285c2.659,0.622,5.68,0.936,9.069,0.936
				c4.658,0,8.811-0.652,12.471-1.979c3.663-1.322,6.756-3.126,9.276-5.406c2.525-2.279,4.445-4.994,5.783-8.125
				c1.333-3.142,1.991-6.506,1.991-10.078c0-3.886-0.844-7.098-2.531-9.605c-1.689-2.518-3.925-4.625-6.694-6.302
				c-2.776-1.688-5.921-3.106-9.44-4.241c-3.52-1.149-7.142-2.259-10.855-3.349c-3.714-1.089-7.336-2.306-10.867-3.658
				c-3.519-1.347-6.661-3.074-9.441-5.167c-2.769-2.108-4.994-4.722-6.693-7.858c-1.688-3.141-2.534-7.072-2.534-11.783
				c0-3.688,0.742-7.239,2.249-10.67c1.494-3.425,3.693-6.435,6.571-9.054c2.88-2.624,6.441-4.727,10.682-6.303
				c4.243-1.585,9.089-2.376,14.521-2.376c6.102,0,11.575,0.907,16.43,2.726c4.85,1.814,9.268,4.59,13.266,8.324L1259.174,1156.627z
				"/>
			<path d="M1396.514,1147.873h-51.268v103.666h-8.565v-103.666h-52.389v-6.724h112.222V1147.873z"/>
			<path d="M1520.693,1196.458c0,8.507-1.317,16.222-3.942,23.148c-2.625,6.921-6.317,12.832-11.088,17.736
				c-4.764,4.899-10.483,8.688-17.156,11.363c-6.675,2.665-14.016,3.998-22.066,3.998c-8.028,0-15.371-1.333-22.013-3.998
				c-6.642-2.675-12.344-6.464-17.119-11.363c-4.77-4.904-8.467-10.815-11.09-17.736c-2.614-6.927-3.93-14.642-3.93-23.148
				c0-8.45,1.315-16.142,3.93-23.062c2.623-6.931,6.32-12.844,11.09-17.742c4.775-4.899,10.478-8.693,17.119-11.399
				c6.642-2.695,13.984-4.043,22.013-4.043c8.051,0,15.392,1.337,22.066,4.008c6.673,2.67,12.393,6.475,17.156,11.395
				c4.771,4.934,8.463,10.852,11.088,17.782C1519.376,1180.316,1520.693,1188.008,1520.693,1196.458z M1512.171,1196.458
				c0-7.671-1.098-14.571-3.29-20.69c-2.205-6.12-5.309-11.303-9.327-15.554c-4.013-4.256-8.835-7.508-14.467-9.772
				c-5.621-2.254-11.838-3.379-18.646-3.379c-6.753,0-12.924,1.125-18.552,3.379c-5.633,2.265-10.469,5.517-14.51,9.772
				c-4.038,4.251-7.183,9.434-9.404,15.554c-2.22,6.119-3.333,13.02-3.333,20.69c0,7.731,1.113,14.642,3.333,20.731
				c2.222,6.095,5.366,11.268,9.404,15.522c4.041,4.247,8.877,7.493,14.51,9.728c5.628,2.229,11.799,3.338,18.552,3.338
				c6.809,0,13.025-1.109,18.646-3.338c5.632-2.234,10.454-5.48,14.467-9.728c4.019-4.255,7.122-9.428,9.327-15.522
				C1511.073,1211.1,1512.171,1204.189,1512.171,1196.458z"/>
			<path d="M1648.505,1251.539h-9.636l-42.925-49.787h-20.062v49.787h-8.565v-110.086h30.116c13.535,0,23.658,2.463,30.406,7.356
				c6.738,4.904,10.104,12.099,10.104,21.593c0,4.195-0.774,8.035-2.327,11.511c-1.558,3.475-3.782,6.525-6.694,9.14
				c-2.914,2.619-6.436,4.756-10.564,6.419c-4.139,1.661-8.781,2.775-13.938,3.339
				C1605.752,1201.6,1648.505,1251.539,1648.505,1251.539z M1596.273,1195.83c5.212,0,9.875-0.577,14.009-1.742
				c4.137-1.171,7.634-2.848,10.477-5.017c2.855-2.178,5.048-4.798,6.542-7.857c1.493-3.065,2.249-6.51,2.249-10.346
				c0-7.837-2.733-13.644-8.207-17.429c-5.458-3.784-13.432-5.678-23.909-5.678h-21.551v48.068H1596.273z"/>
			<path d="M1715.998,1206.186v45.354h-8.299v-45.354l-42.612-64.732h9.127c0,0,37.272,57.492,37.716,58.582
				c0.426-1.09,37.455-58.582,37.455-58.582h1.892h7.324L1715.998,1206.186z"/>
		</g>
		<g>
			<g>
				<g>
					
						<path fill="none" stroke="#000000" stroke-width="10.271" stroke-linecap="round" stroke-linejoin="round" stroke-miterlimit="10" d="
						M751.68,748.057c0,0,43.927-7.017,67.157-74.267c56.869-164.649-257.687-139.5-444.055,158.007
						c-125.748,200.721-100.599,426.651-4.935,392.693c45.217-16.055,135.972-180.446,156.087-220.12
						c-40.157,105.292-153.194,474.512-181.614,474.512c-32.429,0-12.759-61.636-5.167-82.305
						c16.162-44.018,57.351-155.242,113.669-222.481c28.837-34.431,123.256-129.271,121.923-132.731
						c-10.811-28.072-84.254,141.409-28.635,122.243c60.021-20.68,117.43-123.353,122.804-173.327
						c7.64-71.064-76.878-5.142-103.919,49.057"/>
					
						<path fill="none" stroke="#000000" stroke-width="10.271" stroke-linecap="round" stroke-linejoin="round" stroke-miterlimit="10" d="
						M884.197,916.222c-22.427,8.563-59.298,149.657-3.788,130.133c52.072-18.314,90.535-107.644,106.169-163.965
						c12.192-43.894-58.409-40.485-97.187,34.232"/>
					
						<path fill="none" stroke="#000000" stroke-width="10.271" stroke-linecap="round" stroke-linejoin="round" stroke-miterlimit="10" d="
						M988.638,923.163c-27.504,8.248-46.861,55.76-39.071,69.986c21.702,39.654,51.183,15.406,85.105-17.296"/>
					
						<path fill="none" stroke="#000000" stroke-width="10.271" stroke-linecap="round" stroke-linejoin="round" stroke-miterlimit="10" d="
						M660.849,1033.881c-35.466,8.259-42.577,66.581-32.559,79.754c21.131,27.783,40.379,16.748,78.665-52.446
						c38.28-69.186,51.321-103.803,67.138-153.99c9.405-29.826,75.51-187.863,49.044-178.738
						c-11.615,3.997-76.509,176.98-90.147,210.322c-15.913,41.716-29.28,95.637-19.535,132.64
						c17.575,66.769,91.168-8.328,124.455-63.09c18.763-33.625,40.042-111.909-9.879-106.012
						c-36.961,4.372-75.943,65.563-97.934,100.023"/>
					
						<path fill="none" stroke="#000000" stroke-width="10.271" stroke-linecap="round" stroke-linejoin="round" stroke-miterlimit="10" d="
						M1758.887,575.292c-44.883,46.955-55.639,66.789-89.408,122.037c-10.346,16.926-21.373,42.86-25.522,61.236
						c-4.413,19.531-9.45,38.154,1.978,20.483c17.286-26.724,26.846-98.635,23.545-123.268
						c-5.058-37.84-52.916,40.556-70.893,83.026c-17.977,42.465-24.114,68.01-41.441,75.583
						c-17.147,7.499-36.011,16.334-38.525-29.88c-1.371-25.215,13.336-101.984,51.705-145.2
						c12.688-14.292-14.967,122.756-51.705,167.704c-34.176,41.807-78.875,56.971-81.186,5.786
						c-0.589-12.944,9.102-55.927,21.397-74.14"/>
					
						<path fill="none" stroke="#000000" stroke-width="10.271" stroke-linecap="round" stroke-linejoin="round" stroke-miterlimit="10" d="
						M1594.732,577.977c11.16-0.648,17.944,9.687,16.529,34.172"/>
				</g>
			</g>
			
				<path fill="none" stroke="#000000" stroke-width="10.271" stroke-linecap="round" stroke-linejoin="round" stroke-miterlimit="10" d="
				M1114.777,798.628c0,0,162.341-226.574,127.064-214.42c-26.253,9.043-69.342,167.821-84.328,216.984
				c-18.006,59.119-33.229,114.118-59.288,171.899c6.519-71.09,46.952-188.491,100.977-205.412
				c43.892-13.745,64.103,29.161,51.641,58.748c-13.142,31.209-26.257,84.79-53.009,108.905
				c-31.006,27.946-21.117-31.492,8.154-62.188c84.658-88.736,31.623,127.138,113.484-12.544
				c66.769-113.925,103.464-178.353,65.558-151.365c-60.792,43.267-70.418,186.784-27.14,172.193
				c52.925-17.833,83.886-99.273,96.908-142.758c8.686-32.236,2.583-64.813-27.814-44.137"/>
		</g>
	</g>
</g>
</svg>
