<?xml version="1.0" encoding="utf-8"?>
<!-- Generator: Adobe Illustrator 16.0.0, SVG Export Plug-In . SVG Version: 6.00 Build 0)  -->
<!DOCTYPE svg PUBLIC "-//W3C//DTD SVG 1.1//EN" "http://www.w3.org/Graphics/SVG/1.1/DTD/svg11.dtd">
<svg version="1.1" id="Layer_1" xmlns="http://www.w3.org/2000/svg" xmlns:xlink="http://www.w3.org/1999/xlink" x="0px" y="0px"
	 width="286px" height="286px" viewBox="0 0 286 286" enable-background="new 0 0 286 286" xml:space="preserve">
<g>
	<g>
		<g>
			<g>
				
					<path fill="none" stroke="#000000" stroke-width="1.4491" stroke-linecap="round" stroke-linejoin="round" stroke-miterlimit="10" d="
					M104.173,101.943c0,0,5.708,2.294,7.201-4.917c4.844-23.397-33.506-26.092-59.636,14.638
					c-17.63,27.479-7.887,54.742,4.166,47.599c5.588-3.313,14.207-16.409,17.027-21.878c-5.631,14.624-10.847,38.145-14.894,51.82
					c-0.977,3.309-4.944,15.163-7.913,16.045c-4.337,1.29-3.447-10.229-3.042-13.306c1.369-10.472,7.701-21.964,15.598-31.054
					c4.043-4.656,17.281-17.356,17.094-17.859c-1.515-4.072-12.38,15.701-4.26,15.918c7.271,0.197,16.49-15.399,17.463-22.41
					c1.57-11.292-9.801-3.278-14.57,6.125"/>
				
					<path fill="none" stroke="#000000" stroke-width="1.4491" stroke-linecap="round" stroke-linejoin="round" stroke-miterlimit="10" d="
					M123.886,127.806c-3.144,1.035-10.027,17.756-1.907,17.974c7.272,0.197,14.563-14.117,16.754-21.987
					c1.709-6.132-8.681-6.182-14.118,4.113"/>
				
					<path fill="none" stroke="#000000" stroke-width="1.4491" stroke-linecap="round" stroke-linejoin="round" stroke-miterlimit="10" d="
					M137.805,129.595c-3.857,0.948-6.57,7.537-5.479,9.619c3.042,5.805,7.029,3.906,11.932-1.768"/>
				
					<path fill="none" stroke="#000000" stroke-width="1.4491" stroke-linecap="round" stroke-linejoin="round" stroke-miterlimit="10" d="
					M91.846,142.665c-4.973,0.886-5.422,8.815-4.565,11.059c3.044,7.974,7.111,2.053,12.479-7.461
					c5.367-9.512,8.905-13.675,11.123-20.672c1.318-4.157,4.425-14.443,2.774-14.834c-1.649-0.391-8.335,13.717-10.247,18.339
					c-2.231,5.794-3.957,13.312-2.739,18.673c2.638,10.858,12.783-0.446,17.45-7.951c2.631-4.622,5.173-12.422-1.826-11.987
					c-5.183,0.322-10.207,5.551-13.291,10.266"/>
				
					<path fill="none" stroke="#000000" stroke-width="1.4491" stroke-linecap="round" stroke-linejoin="round" stroke-miterlimit="10" d="
					M245.326,80.235c-6.292,6.303-7.328,10.158-12.063,17.728c-1.451,2.319-2.997,5.912-3.578,8.486
					c-0.619,2.739-1.674,6.46-0.072,4.043c2.424-3.653,4.113-14.903,3.65-18.427c-0.709-5.413-7.419,5.33-9.939,11.213
					c-2.521,5.885-2.374,7.298-5.682,10.175c-3.31,2.876-5.3,0.717-5.53-4.332c-0.167-3.59,3.12-14.382,7.989-20.64
					c3.323-4.27-2.839,17.75-7.989,23.835c-5.152,6.085-10.449,12.914-10.659,5.279c-0.051-1.842,1.276-7.867,3-10.353"/>
				
					<path fill="none" stroke="#000000" stroke-width="1.4491" stroke-linecap="round" stroke-linejoin="round" stroke-miterlimit="10" d="
					M222.784,80.415c1.564-0.002,2.516,1.521,2.317,4.984"/>
			</g>
		</g>
		
			<path fill="none" stroke="#000000" stroke-width="1.4491" stroke-linecap="round" stroke-linejoin="round" stroke-miterlimit="10" d="
			M156.916,107.678c0,0,14.671-27.443,9.992-27.443c-3.833,0-5.498,27.159-7.599,34.017c-2.525,8.246-4.97,17.066-8.624,25.059
			c0.915-10.04,5.58-21.45,13.087-29.997c3.45-3.986,9.472-10.494,12.072-5.011c1.927,4.063-1.703,10.186-3.45,14.286
			c-1.843,4.323-4.563,10.43-7.812,14.158c-5.679,6.623-2.581-3.767,1.523-7.888c11.87-11.914,10.037,14.619,18.81-1.431
			c8.771-16.05,14.506-26.657,9.191-23.132c-8.523,5.65-13.577,21.485-7.693,24.473c7.1,3.217,16.215-11.458,18.04-17.526
			c1.219-4.506-0.202-11.385-4.464-8.696"/>
	</g>
	<g>
		<path d="M176.535,160.799c0,0-0.729-0.546-0.998-0.709c-0.27-0.162-0.607-0.311-1.014-0.449c-0.405-0.137-0.904-0.206-1.498-0.206
			c-0.594,0-1.117,0.079-1.566,0.237c-0.453,0.159-0.83,0.375-1.135,0.65s-0.537,0.591-0.694,0.953
			c-0.159,0.361-0.238,0.738-0.238,1.135c0,0.52,0.118,0.95,0.354,1.289c0.235,0.339,0.544,0.627,0.931,0.864
			c0.385,0.24,0.824,0.44,1.313,0.602c0.489,0.162,0.992,0.323,1.508,0.482c0.518,0.159,1.022,0.333,1.511,0.523
			c0.49,0.192,0.927,0.432,1.313,0.721c0.386,0.288,0.697,0.644,0.931,1.066c0.237,0.421,0.354,0.947,0.354,1.574
			c0,0.642-0.117,1.246-0.354,1.812c-0.234,0.567-0.575,1.06-1.024,1.478c-0.447,0.417-0.994,0.749-1.643,0.989
			c-0.648,0.242-1.388,0.363-2.22,0.363c-1.081,0-2.011-0.179-2.789-0.536c-0.78-0.358-1.462-0.846-2.048-1.467l0.696-0.683
			c0,0,0.457,0.367,0.611,0.494c0.153,0.126,0.339,0.264,0.555,0.411c0.215,0.148,0.467,0.285,0.751,0.411
			c0.286,0.126,0.614,0.233,0.985,0.318c0.37,0.087,0.79,0.13,1.26,0.13c0.649,0,1.227-0.091,1.736-0.276
			c0.51-0.183,0.939-0.434,1.291-0.751c0.351-0.318,0.618-0.695,0.803-1.131c0.186-0.437,0.278-0.904,0.278-1.402
			c0-0.541-0.118-0.986-0.352-1.336c-0.235-0.35-0.547-0.643-0.931-0.876c-0.386-0.235-0.824-0.432-1.314-0.589
			c-0.489-0.16-0.993-0.314-1.51-0.466c-0.516-0.151-1.02-0.321-1.511-0.509c-0.489-0.187-0.927-0.427-1.313-0.719
			c-0.385-0.293-0.695-0.656-0.932-1.093c-0.234-0.437-0.352-0.983-0.352-1.64c0-0.512,0.103-1.005,0.313-1.483
			c0.208-0.476,0.513-0.896,0.913-1.26c0.401-0.364,0.896-0.656,1.486-0.876c0.59-0.221,1.264-0.33,2.02-0.33
			c0.849,0,1.61,0.126,2.285,0.379c0.675,0.252,1.29,0.639,1.846,1.158L176.535,160.799z"/>
		<path d="M195.637,159.582h-7.131v14.42h-1.191v-14.42h-7.287v-0.935h15.609V159.582z"/>
		<path d="M212.91,166.339c0,1.183-0.189,2.257-0.567,3.22c-0.378,0.963-0.91,1.785-1.596,2.467c-0.686,0.682-1.51,1.209-2.471,1.58
			c-0.961,0.371-2.018,0.557-3.177,0.557c-1.156,0-2.213-0.186-3.17-0.557c-0.956-0.371-1.777-0.898-2.464-1.58
			c-0.688-0.682-1.219-1.504-1.597-2.467c-0.376-0.963-0.566-2.037-0.566-3.22c0-1.175,0.19-2.245,0.566-3.208
			c0.378-0.963,0.909-1.786,1.597-2.468c0.687-0.681,1.508-1.209,2.464-1.585c0.957-0.375,2.014-0.563,3.17-0.563
			c1.159,0,2.216,0.186,3.177,0.558c0.96,0.372,1.785,0.9,2.471,1.584c0.687,0.686,1.218,1.509,1.596,2.473
			C212.721,164.095,212.91,165.165,212.91,166.339z M211.683,166.339c0-1.067-0.158-2.027-0.474-2.878
			c-0.316-0.852-0.764-1.572-1.342-2.163c-0.578-0.593-1.273-1.045-2.083-1.359c-0.81-0.313-1.704-0.47-2.685-0.47
			c-0.973,0-1.861,0.157-2.672,0.47c-0.811,0.314-1.507,0.767-2.088,1.359c-0.582,0.591-1.035,1.312-1.355,2.163
			c-0.319,0.851-0.479,1.811-0.479,2.878c0,1.076,0.16,2.037,0.479,2.884c0.32,0.847,0.773,1.567,1.355,2.159
			c0.582,0.591,1.278,1.043,2.088,1.354c0.811,0.31,1.699,0.464,2.672,0.464c0.98,0,1.875-0.154,2.685-0.464
			c0.811-0.311,1.505-0.762,2.083-1.354s1.025-1.312,1.342-2.159C211.524,168.376,211.683,167.415,211.683,166.339z"/>
		<path d="M230.287,174.001h-1.34l-5.97-6.926h-2.79v6.926h-1.191v-15.313h4.188c1.884,0,3.292,0.342,4.229,1.023
			c0.937,0.682,1.405,1.682,1.405,3.003c0,0.584-0.107,1.117-0.323,1.601c-0.217,0.483-0.526,0.908-0.932,1.272
			c-0.405,0.365-0.894,0.661-1.469,0.893c-0.576,0.23-1.221,0.386-1.938,0.465C224.341,167.054,230.287,174.001,230.287,174.001z
			 M223.022,166.253c0.725,0,1.375-0.082,1.949-0.244c0.575-0.162,1.061-0.395,1.457-0.697c0.397-0.303,0.702-0.667,0.91-1.093
			c0.208-0.425,0.313-0.906,0.313-1.439c0-1.089-0.381-1.897-1.143-2.424c-0.758-0.526-1.868-0.79-3.326-0.79h-2.997v6.687H223.022z
			"/>
		<path d="M239.938,167.692v6.31h-1.18v-6.31l-6.063-9.003h1.299c0,0,5.303,7.997,5.365,8.148c0.062-0.151,5.331-8.148,5.331-8.148
			h0.269H246L239.938,167.692z"/>
	</g>
</g>
</svg>
